<svg width="249" height="317" viewBox="0 0 249 317" fill="none" xmlns="http://www.w3.org/2000/svg">
<g clip-path="url(#clip0_4_393)">
<path d="M168.333 10.2052C171.091 10.1356 173.604 12.0955 174.876 14.5439C176.149 16.9923 176.38 19.8471 176.316 22.6058C176.252 25.3646 175.918 28.1276 176.161 30.8764C176.678 36.724 179.95 42.2686 184.819 45.5468C182.984 45.6891 181.183 44.8389 179.797 43.628C178.411 42.4171 177.373 40.8658 176.352 39.3339C175.488 38.0376 174.62 36.7326 174 35.3035C173.091 33.2099 172.746 30.9223 172.419 28.6635C171.615 23.1019 170.874 17.5313 170.195 11.953" fill="#2F2E41"/>
<path d="M121.612 310.157L130.918 310.156L135.346 274.249L121.61 274.25L121.612 310.157Z" fill="#FFB6B6"/>
<path d="M153.497 309.946C153.787 310.434 153.94 312.01 153.94 312.578C153.94 314.323 152.526 315.737 150.781 315.737H121.96C120.77 315.737 119.805 314.772 119.805 313.582V312.382C119.805 312.382 118.379 308.774 121.315 304.328C121.315 304.328 124.963 307.809 130.414 302.356L132.022 299.443L143.659 307.956L150.109 308.75C151.52 308.924 152.771 308.723 153.497 309.946Z" fill="#2F2E41"/>
<path d="M161.774 303.378L170.821 305.562L183.547 271.695L170.195 268.473L161.774 303.378Z" fill="#FFB6B6"/>
<path d="M192.819 310.656C192.986 311.199 192.765 312.766 192.632 313.318C192.223 315.015 190.516 316.058 188.821 315.648L160.804 308.884C159.647 308.605 158.936 307.44 159.215 306.283L159.496 305.116C159.496 305.116 158.957 301.275 162.853 297.642C162.853 297.642 165.583 301.882 172.161 297.861L174.407 295.406L183.722 306.413L189.806 308.699C191.137 309.199 192.4 309.297 192.819 310.656Z" fill="#2F2E41"/>
<path d="M215.745 130.929C214.011 129.522 212.739 127.84 212.027 126.182L194.662 113.824L200.783 105.73L217.739 119.138C219.507 119.492 221.415 120.39 223.149 121.797C227.111 125.011 228.665 129.661 226.62 132.182C224.575 134.704 219.707 134.143 215.745 130.929Z" fill="#FFB6B6"/>
<path d="M212.543 112.727L211.731 114.387L207.524 122.976L206.28 125.511L194.043 114.519L184.203 105.684L161.072 84.9125C159.468 83.4718 158.684 81.516 158.684 79.5692C158.684 77.2396 159.805 74.9281 161.97 73.5239C163.31 72.6531 164.901 72.2565 166.491 72.3933C170.247 72.7169 177.813 73.4099 185.839 74.3673L188.601 82.364L187.247 89.5491L183.565 88.4594L186.919 91.2724L212.543 112.727Z" fill="#9391E5"/>
<path d="M139.377 104.249C141.16 104.259 144.9 128.423 142.111 132.059C139.824 135.042 181.749 132.059 181.749 132.059C177.808 131.257 179.581 105.442 183.816 104.249L158.519 96.4984L139.377 104.249Z" fill="#FFB6B6"/>
<path d="M179.887 128.799H142.614C142.614 128.799 127.071 153.487 127.071 201.357L120.69 278.406L136.642 279.317L162.345 174.873L176.47 226.149L166.723 280.853H182.169L200.454 219.169L196.804 186.768C196.804 186.768 192.997 142.244 179.887 128.799Z" fill="#2F2E41"/>
<path d="M188.601 82.364L187.247 89.5491L186.919 91.2724L184.203 105.684L180.519 111.105C180.519 111.105 154.288 102.971 141.982 113.001L132.085 80.9963L142.568 58.2009L150.772 53.6418L152.139 48.1709H169.518L172.193 53.6418L179.941 57.2891L185.839 74.3674L188.601 82.364Z" fill="#9391E5"/>
<path d="M183.324 56.3417C181.904 58.0649 180.212 59.3244 178.549 60.0228L166.056 77.2937L158.014 71.107L171.553 54.2535C171.921 52.4871 172.835 50.5858 174.255 48.8626C177.499 44.9259 182.16 43.4088 184.664 45.4741C187.168 47.5394 186.568 52.4049 183.324 56.3417Z" fill="#FFB6B6"/>
<path d="M149.646 58.4895C149.646 58.4895 136.416 51.2136 132.121 58.4895C128.456 64.6973 125.27 96.0641 124.414 105.139C124.264 106.732 124.648 108.324 125.507 109.674C128.05 113.672 133.695 114.161 136.887 110.661L177.832 65.7654L165.103 59.399L143.282 82.1361L149.646 58.4895Z" fill="#9391E5"/>
<path d="M158.725 44.6923C167.913 44.6923 175.361 37.2421 175.361 28.0517C175.361 18.8613 167.913 11.411 158.725 11.411C149.538 11.411 142.09 18.8613 142.09 28.0517C142.09 37.2421 149.538 44.6923 158.725 44.6923Z" fill="#FFB6B6"/>
<path d="M171.536 19.0579C168.942 20.8096 167.282 23.7452 166.861 28.1197C165.232 26.8256 164.99 24.4713 165.61 21.4592C164.477 24.5423 155.281 40.2339 154.674 45.1946C154.289 48.3542 155.553 51.5392 157.492 54.0606C159.305 56.4114 161.668 58.2566 164.087 59.9881C159.539 58.3261 155.748 54.6672 153.948 50.1679C151.345 43.6716 152.893 36.4423 154.94 29.6364C154.46 30.54 153.771 32.1894 152.975 32.834C151.952 33.6618 150.739 33.4027 149.917 34.4327C148.919 35.684 148.73 37.4344 149.039 39.0079C149.355 40.5815 150.113 42.0222 150.859 43.4378C140.311 41.454 137.175 29.3959 141.996 21.1811C138.912 26.7168 138.243 37.8641 142.166 42.8312C144.364 45.618 147.548 47.7918 148.648 51.1663C149.418 53.5361 148.995 56.1776 147.934 58.4336C146.872 60.6895 145.211 62.6106 143.455 64.38C142.735 65.1068 141.995 65.8082 141.225 66.4907C140.373 65.623 138.928 66.0335 138.613 67.208C138.438 67.8606 138.163 68.5333 137.813 69.2206C134.692 69.9293 130.477 68.9457 129.834 73.3345C129.663 74.505 127.547 73.9854 126.372 74.175C126.689 73.2938 125.667 72.5139 124.919 73.0776C123.943 73.8141 122.903 74.2458 121.811 74.4278C119.032 74.2761 116.309 73.5683 113.896 72.1907C121.59 67.3944 128.341 68.7784 131.348 60.222C131.819 58.8836 131.971 56.0917 131.962 52.9512C131.943 45.8307 130.269 38.8412 127.386 32.3308C127.034 31.5365 126.766 30.7691 126.65 30.0977C125.81 25.2508 127.118 18.5902 129.241 15.4558C131.363 12.3278 135.034 10.3056 138.818 10.2045C140.707 10.1476 141.831 10.9754 143.499 10.0844C145.28 9.13017 145.697 10.3814 146.904 8.76364C149.058 5.8757 152.729 4.38435 156.33 4.25796C159.931 4.13157 161.946 3.12652 165.218 4.63685C167.284 5.59108 169.663 10.9366 171.94 10.9691C176.653 11.0366 177.557 14.9912 171.536 19.0579Z" fill="#2F2E41"/>
<path d="M164.612 60.361C164.435 60.2346 164.264 60.1145 164.087 59.9881C164.226 60.045 164.365 60.0956 164.504 60.1398L164.612 60.361Z" fill="#2F2E41"/>
<path d="M245.731 128.005C243.105 124.905 239.27 123.127 235.208 123.127H219.242C215.047 123.127 211.131 125.002 208.5 128.27C205.869 131.539 204.873 135.766 205.768 139.866L209.252 155.825C208.397 158.017 207.923 160.4 207.923 162.895C207.923 173.645 216.635 182.359 227.381 182.359C238.128 182.359 246.84 173.645 246.84 162.895C246.84 160.777 246.497 158.74 245.872 156.831L248.811 139.19C249.479 135.182 248.356 131.106 245.731 128.005ZM227.381 143.43C221.72 143.43 216.625 145.851 213.069 149.712L210.685 138.792C210.116 136.188 210.749 133.504 212.42 131.428C214.091 129.352 216.577 128.161 219.242 128.161H235.208C237.788 128.161 240.224 129.29 241.891 131.259C243.559 133.228 244.272 135.817 243.847 138.363L241.916 149.958C238.352 145.955 233.162 143.43 227.381 143.43Z" fill="#3F3D56"/>
<path d="M66.1113 273.634C64.0526 271.203 61.0451 269.809 57.8599 269.809H45.3402C42.0505 269.809 38.9803 271.279 36.917 273.842C34.8537 276.405 34.073 279.719 34.7749 282.934L37.507 295.448C36.8364 297.168 36.4643 299.036 36.4643 300.993C36.4643 309.422 43.2958 316.256 51.7228 316.256C60.1498 316.256 66.9812 309.422 66.9812 300.993C66.9812 299.332 66.7125 297.735 66.2222 296.238L68.5271 282.405C69.0507 279.262 68.1702 276.065 66.1113 273.634ZM51.7228 285.73C47.2832 285.73 43.288 287.628 40.4997 290.655L38.6301 282.092C38.1843 280.05 38.6803 277.945 39.9907 276.318C41.3011 274.69 43.2509 273.756 45.3402 273.756H57.8599C59.8828 273.756 61.7929 274.642 63.1005 276.185C64.408 277.729 64.9672 279.76 64.6346 281.756L63.1197 290.848C60.325 287.709 56.2558 285.73 51.7228 285.73Z" fill="#3F3D56"/>
<path d="M145.126 11.8892L143.919 11.5152C144.099 7.28026 145.244 3.4248 147.483 0L148.69 0.373978L145.126 11.8892Z" fill="#9391E5"/>
<path d="M145.133 10.4075L144.357 11.4052L134.841 4.00938L135.617 3.01166C139.818 4.49523 142.883 7.06182 145.133 10.4075Z" fill="#9391E5"/>
<path d="M200.198 306.047C201.503 306.128 202.224 304.506 201.237 303.561L201.139 303.17C201.151 303.139 201.164 303.108 201.178 303.077C202.497 299.929 206.971 299.95 208.279 303.103C209.441 305.901 210.92 308.704 211.284 311.663C211.447 312.969 211.373 314.3 211.084 315.581C213.805 309.635 215.238 303.141 215.238 296.61C215.238 294.97 215.148 293.329 214.964 291.692C214.813 290.353 214.605 289.023 214.336 287.704C212.879 280.578 209.725 273.79 205.175 268.121C202.988 266.925 201.164 265.056 200.063 262.815C199.667 262.007 199.357 261.137 199.21 260.252C199.459 260.284 200.148 256.493 199.961 256.26C200.308 255.733 200.928 255.472 201.307 254.958C203.191 252.403 205.787 252.849 207.142 256.321C210.037 257.783 210.065 260.206 208.289 262.537C207.159 264.02 207.003 266.027 206.012 267.615C206.114 267.746 206.22 267.872 206.322 268.003C208.193 270.403 209.811 272.982 211.174 275.692C210.789 272.68 211.358 269.052 212.328 266.713C213.433 264.048 215.503 261.803 217.326 259.499C219.515 256.732 224.005 257.94 224.391 261.448C224.395 261.482 224.398 261.516 224.402 261.55C224.131 261.702 223.866 261.865 223.607 262.036C222.129 263.014 222.64 265.306 224.391 265.576L224.431 265.582C224.333 266.558 224.165 267.525 223.921 268.476C226.259 277.523 221.21 280.818 214.001 280.966C213.842 281.047 213.687 281.129 213.528 281.207C214.258 283.264 214.842 285.374 215.274 287.513C215.662 289.402 215.931 291.312 216.082 293.231C216.27 295.651 216.254 298.084 216.05 300.5L216.062 300.414C216.58 297.753 218.024 295.268 220.122 293.545C223.246 290.978 227.66 290.032 231.031 287.969C232.653 286.975 234.732 288.259 234.449 290.141L234.436 290.231C233.934 290.435 233.444 290.672 232.971 290.937C232.7 291.09 232.435 291.252 232.176 291.423C230.698 292.401 231.208 294.693 232.96 294.963L232.999 294.97C233.028 294.974 233.052 294.978 233.081 294.982C232.22 297.027 231.02 298.925 229.519 300.561C228.056 308.459 221.776 309.208 215.058 306.908H215.054C214.319 310.108 213.246 313.235 211.867 316.214H200.483C200.442 316.088 200.405 315.957 200.369 315.83C201.421 315.896 202.482 315.835 203.519 315.643C202.674 314.606 201.83 313.561 200.985 312.524C200.965 312.504 200.948 312.484 200.932 312.463C200.503 311.933 200.071 311.406 199.642 310.875L199.642 310.875C199.615 309.246 199.811 307.622 200.198 306.047Z" fill="#F2F2F2"/>
<path d="M39.9097 316.448C39.9097 316.754 40.1544 317 40.4592 317H234.069C234.374 317 234.618 316.754 234.618 316.448C234.618 316.141 234.374 315.896 234.069 315.896H40.4592C40.1544 315.896 39.9097 316.141 39.9097 316.448Z" fill="#F5EEFE"/>
</g>
<defs>
<clipPath id="clip0_4_393">
<rect width="281" height="317" fill="white" transform="translate(-32)"/>
</clipPath>
</defs>
</svg>
